<svg width="24" height="24" viewBox="0 0 24 24" fill="none" xmlns="http://www.w3.org/2000/svg">
<path d="M16.07 10.34L13.95 12.46L22 18.5V14.94L16.07 10.34V10.34Z" fill="white"/>
<path d="M9.15002 11.36L2.15002 19.81C2.5092 21.0913 3.66946 21.9828 5.00002 22H19C20.0145 21.9971 20.9588 21.4817 21.51 20.63L9.15002 11.36Z" fill="white"/>
<path d="M8.24 9.35C8.58283 8.94916 9.17805 8.88351 9.6 9.2L12.33 11.25L15.33 8.25C15.691 7.89189 16.2634 7.86177 16.66 8.18L22 12.4V5C22 3.34315 20.6569 2 19 2H5C3.34315 2 2 3.34315 2 5V16.84L8.24 9.35Z" fill="white"/>
</svg>
