<svg width="24" height="24" viewBox="0 0 24 24" fill="none" xmlns="http://www.w3.org/2000/svg">
<path d="M22 12C22 12.5523 21.5523 13 21 13H5.17L9.76 18.35C10.119 18.7697 10.0697 19.401 9.65 19.76C9.23026 20.119 8.59899 20.0697 8.24 19.65L2.24 12.65C2.20418 12.6002 2.17399 12.5465 2.15 12.49C2.1199 12.4524 2.09313 12.4123 2.07 12.37C2.02667 12.2513 2.00303 12.1263 2 12V12C2.00303 11.8737 2.02667 11.7487 2.07 11.63C2.09313 11.5878 2.1199 11.5476 2.15 11.51C2.17399 11.4535 2.20418 11.3998 2.24 11.35L8.24 4.35001C8.59899 3.93027 9.23026 3.88102 9.65 4.24001C10.0697 4.59899 10.119 5.23027 9.76 5.65001L5.17 11H21C21.5523 11 22 11.4477 22 12Z" fill="#F2F2F2"/>
</svg>
