<svg width="24" height="24" viewBox="0 0 24 24" fill="none" xmlns="http://www.w3.org/2000/svg">
<path d="M10 5.04999V2.99999C10.0006 2.61172 9.77646 2.25818 9.425 2.09317C9.07355 1.92816 8.65834 1.9815 8.36 2.22999L2.36 7.22999C2.13073 7.41997 1.99805 7.70224 1.99805 7.99999C1.99805 8.29774 2.13073 8.58001 2.36 8.76999L8.36 13.77C8.53991 13.9191 8.76635 14.0004 9 14C9.14487 14.0008 9.28817 13.9701 9.42 13.91C9.77446 13.746 10.001 13.3906 10 13V11.05C13.9957 11.441 17.4132 14.0887 18.79 17.86L20.06 21.34C20.2032 21.7359 20.579 21.9998 21 22C21.0562 22.0103 21.1138 22.0103 21.17 22C21.6551 21.9164 22.0072 21.4922 22 21V18C21.994 11.2126 16.7673 5.5721 10 5.04999Z" fill="#F2F2F2"/>
</svg>
